HIERARCHY
ROOT hip
{
	OFFSET 0.000000 0.000000 0.000000 
	CHANNELS 6 Xposition Yposition Zposition Xrotation Zrotation Yrotation
	JOINT abdomen
	{
		OFFSET 0.000000 3.402643 0.000000 
		CHANNELS 3 Xrotation Zrotation Yrotation
		JOINT chest
		{
			OFFSET 0.000000 8.438565 -0.680529 
			CHANNELS 3 Xrotation Zrotation Yrotation
			JOINT neck
			{
				OFFSET 0.000000 10.207942 -0.272212 
				CHANNELS 3 Xrotation Zrotation Yrotation
				JOINT head
				{
					OFFSET 0.000000 3.130431 0.000000 
					CHANNELS 3 Xrotation Zrotation Yrotation
					End Site
					{
						OFFSET 0.000000 3.130435 0.000000 
					}
				}
			}
			JOINT lCollar
			{
				OFFSET 3.470700 6.669187 -0.816635 
				CHANNELS 3 Yrotation Zrotation Xrotation
				JOINT lShldr
				{
					OFFSET 3.198488 0.000000 0.000000 
					CHANNELS 3 Zrotation Yrotation Xrotation
					JOINT lForeArm
					{
						OFFSET 10.139888 0.000000 0.000000 
						CHANNELS 3 Yrotation Zrotation Xrotation
						JOINT lHand
						{
							OFFSET 8.370511 0.000000 0.000000 
							CHANNELS 3 Zrotation Yrotation Xrotation
							End Site
							{
								OFFSET 4.083176 0.000000 0.000000 
							}
						}
					}
				}
			}
			JOINT rCollar
			{
				OFFSET -3.470700 6.669187 -0.816635 
				CHANNELS 3 Yrotation Zrotation Xrotation
				JOINT rShldr
				{
					OFFSET -3.198488 0.000000 0.000000 
					CHANNELS 3 Zrotation Yrotation Xrotation
					JOINT rForeArm
					{
						OFFSET -10.139888 0.000000 0.000000 
						CHANNELS 3 Yrotation Zrotation Xrotation
						JOINT rHand
						{
							OFFSET -8.370511 0.000000 0.000000 
							CHANNELS 3 Zrotation Yrotation Xrotation
							End Site
							{
								OFFSET -4.083176 0.000000 0.000000 
							}
						}
					}
				}
			}
		}
	}
	JOINT lThigh
	{
		OFFSET 5.308129 -1.633274 1.361059 
		CHANNELS 3 Xrotation Zrotation Yrotation
		JOINT lShin
		{
			OFFSET -2.041588 -20.007561 0.000000 
			CHANNELS 3 Xrotation Zrotation Yrotation
			JOINT lFoot
			{
				OFFSET 0.000000 -19.190928 -1.224953 
				CHANNELS 3 Xrotation Yrotation Zrotation
				End Site
				{
					OFFSET 0.000000 -2.449906 4.627600 
				}
			}
		}
	}
	JOINT rThigh
	{
		OFFSET -5.308129 -1.633274 1.361059 
		CHANNELS 3 Xrotation Zrotation Yrotation
		JOINT rShin
		{
			OFFSET 2.041588 -20.007561 0.000000 
			CHANNELS 3 Xrotation Zrotation Yrotation
			JOINT rFoot
			{
				OFFSET 0.000000 -19.190928 -1.224953 
				CHANNELS 3 Xrotation Yrotation Zrotation
				End Site
				{
					OFFSET 0.000000 -2.449906 4.627600 
				}
			}
		}
	}
}
MOTION
Frames: 15
Frame Time: 0.033333
-0.722956 48.275318 7.470833 8.603517 0.683594 52.119255 48.167625 -27.393627 7.097578 -17.431643 12.470704 1.865235 51.063168 8.107644 2.471410 -87.666016 -1.396484 44.052734 2.000000 -2.000000 0.000000 -88.457031 45.986328 0.016790 -110.998207 0.706521 -3.205914 41.693901 45.641804 -27.124289 -2.000000 2.000000 0.000000 63.095703 -3.281250 -5.937500 121.134392 -1.729303 -2.942385 -37.691952 -30.508457 39.710636 -24.550102 9.423545 -8.997936 61.870838 -2.466158 -4.744212 0.196014 18.967161 0.376710 7.720321 -0.030276 -33.571472 23.254213 4.523656 2.088703 -28.566246 4.171622 18.020187 
-1.208519 46.614300 13.962702 10.019531 0.683594 59.882931 49.492359 -22.778088 5.448483 -18.056641 10.947265 0.724511 51.063168 8.107644 2.471410 -88.046875 -2.910156 49.960938 2.000000 -2.000000 0.000000 -88.369141 34.843754 -4.545201 -116.107544 0.722079 -3.275260 41.025589 36.226830 -13.870052 -2.000000 2.000000 0.000000 55.595703 -5.703125 9.178718 124.835571 -1.719553 -2.941821 -57.455853 -28.852798 38.798515 -28.181267 1.777448 -6.463243 62.746201 -2.431743 -4.648979 -5.780984 20.493242 -2.370798 21.091452 14.331224 -31.385979 -5.266524 5.302166 -0.461888 -16.341738 -3.769799 16.119968 
-2.125880 45.979530 17.056641 11.250000 0.341797 66.689507 50.565628 -18.675079 4.008975 -18.671875 9.423829 -0.037463 51.063168 8.107644 2.471410 -88.398438 -4.130859 55.322269 2.000000 -2.000000 0.000000 -77.363281 27.919924 1.059261 -120.826454 1.594362 -2.739561 38.653873 27.719110 -3.064601 -2.000000 2.000000 0.000000 52.646488 -8.603516 17.576668 126.575356 -1.939837 -3.023004 -67.204956 -30.150316 37.049358 -29.712122 -4.003465 -3.185915 59.950668 -2.675625 -4.718870 -11.405715 20.915747 -3.454922 23.610983 21.613438 -29.932026 -14.454210 5.276929 -1.299629 4.972590 -9.667210 17.634155 
-1.056654 47.451538 14.940515 11.933594 -0.175781 70.273407 50.926743 -15.364096 2.600750 -19.443359 8.242188 -0.029297 51.063168 8.107644 2.471410 -88.242188 -5.292969 60.194408 2.000000 -2.000000 0.000000 -65.878906 22.763672 6.376953 -125.755615 1.452938 -2.985322 38.782543 19.406523 5.980197 -2.000000 2.000000 0.000000 57.666012 -17.089844 5.966796 124.819641 -1.848147 -3.086149 -59.870235 -35.697514 33.897785 -28.071005 -9.285935 -0.052183 50.635201 -3.359153 -4.109665 -15.141829 19.826498 -3.455996 17.390072 15.734647 -30.154114 -3.343692 5.311644 -0.143615 7.728364 -13.602816 22.133137 
-0.752979 49.326447 13.241202 12.304688 -1.035156 69.541016 50.678692 -13.445066 1.077645 -20.527344 7.763672 1.484375 51.063168 8.107644 2.471410 -86.660156 -6.445312 63.817265 2.000000 -2.000000 0.000000 -54.101563 13.320313 10.810547 -131.723099 2.036223 -2.374470 45.423374 10.666908 11.937035 -2.000000 2.000000 0.000000 72.353516 -24.990232 -19.174046 120.975502 -1.676453 -2.841833 -39.905762 -42.656124 26.245522 -23.331396 -9.186816 6.050097 38.014996 -4.742080 -3.347676 -18.517307 11.581933 -0.770939 5.017906 4.440302 -28.708071 21.647385 4.973153 2.008079 8.057806 -14.322360 23.881721 
-0.112888 50.421925 20.225910 12.304688 -2.236328 65.576172 49.927147 -12.432417 -0.507257 -21.953127 7.656251 3.730469 51.063168 8.107644 2.471410 -83.994141 -7.675781 66.953125 2.000000 -2.000000 0.000000 -45.058594 1.552734 11.044922 -137.344498 2.032942 -2.598836 56.304806 1.268440 14.002605 -2.000000 2.000000 0.000000 84.082031 -28.125000 -34.682339 118.691940 -1.196241 -3.194921 -27.265352 -45.116615 21.529112 -17.015015 1.822884 19.292316 34.077152 -4.411714 -3.057783 -22.418827 4.628224 8.472363 -8.592287 -7.076932 -23.764620 47.491322 3.485775 3.514478 5.261330 -11.498314 22.930576 
1.138883 49.214516 27.557764 11.943359 -3.095703 61.005863 49.113213 -11.890835 -1.866451 -23.027344 7.509766 6.201173 51.063168 8.107644 2.471410 -81.318359 -8.789062 69.208984 2.000000 -2.000000 0.000000 -42.695313 -4.453125 11.171118 -137.872925 2.030678 -2.637818 63.771706 -4.013994 14.606682 -2.000000 2.000000 0.000000 86.035156 -32.119141 -32.822262 118.352859 -0.986438 -3.270826 -27.352774 -45.040867 21.565004 -5.470274 10.715338 38.589821 25.308125 -4.726749 -2.538040 -22.938435 -8.072937 15.819450 -19.481375 -15.750365 -18.448921 63.785606 2.079994 4.319770 1.432294 -7.604671 19.841108 
3.329852 51.451180 33.605042 11.445313 -3.642578 58.134766 48.686646 -11.150483 -2.527647 -23.574221 7.001955 8.183596 51.063168 8.107644 2.471410 -80.185547 -9.472655 70.877304 2.000000 -2.000000 0.000000 -50.888672 0.136719 13.847656 -126.810249 1.491935 -2.987583 64.291206 -1.991611 16.744215 -2.000000 2.000000 0.000000 81.621094 -35.810547 -21.197121 118.692513 -1.175616 -3.213288 -32.963902 -43.471882 24.414490 7.861829 10.477194 57.885231 6.397224 -4.798131 -0.727141 -17.507277 -17.635168 23.925413 -19.588072 -20.768356 -13.402452 54.850170 2.802566 3.987545 -7.696939 -5.637991 17.738567 
5.085909 51.671753 37.576477 9.667969 -3.300781 57.763107 49.342438 -9.593780 -2.246579 -22.744141 4.883109 9.619277 51.063168 8.107644 2.471410 -82.050781 -9.736327 71.357422 2.000000 -2.000000 0.000000 -64.296875 11.083984 12.931564 -110.829529 0.926076 -3.130768 62.229759 3.953415 19.199633 -2.000000 2.000000 0.000000 74.082031 -34.921879 -7.275391 120.274193 -1.244424 -3.207478 -40.910912 -41.306957 28.372862 18.011780 5.796394 70.094604 -14.830149 -4.741684 1.252183 -10.213678 -23.635378 27.393150 -14.980239 -24.295643 -9.613687 34.634754 4.159687 2.787950 -16.894945 -5.577484 17.146372 
1.316796 50.652088 33.201305 7.363281 -2.285156 58.925785 50.412083 -8.108288 -1.195262 -20.878906 2.216797 10.439455 51.063168 8.107644 2.471410 -85.810547 -9.433594 69.277344 2.000000 -2.000000 0.000000 -74.687500 18.515625 5.989430 -100.986992 0.319927 -3.124884 61.015461 8.339869 19.495981 -2.000000 2.000000 0.000000 68.095703 -30.947262 1.572266 122.382248 -1.704572 -2.863019 -47.379471 -38.879772 30.705627 11.235921 8.468081 69.273987 -5.851880 -5.249647 0.332036 -10.486407 -19.111389 35.305508 -11.766727 -24.596731 -8.838946 20.569620 4.809165 1.911142 -8.897778 -1.890691 14.645879 
2.740618 51.106918 38.819279 5.625000 -2.099609 61.816048 51.215542 -8.022134 0.301392 -19.677734 0.966797 10.459149 51.063168 8.107644 2.471410 -88.945313 -8.750000 65.545395 2.000000 -2.000000 0.000000 -80.751953 23.535158 -6.767578 -102.739922 0.729234 -2.982456 61.324196 8.942560 16.444654 -2.000000 2.000000 0.000000 62.529297 -22.958982 7.958984 126.943550 -1.897298 -2.912985 -54.876450 -35.386383 32.653374 1.941946 12.353658 66.670433 6.931751 -4.773933 -0.758490 -9.550296 -12.883274 40.595924 -3.203623 -18.403881 -14.359427 18.810307 4.867750 1.620321 -13.054521 1.948443 20.368883 
3.266681 51.419109 45.929188 4.902344 -3.330078 68.056076 51.093250 -9.791235 2.545252 -19.462893 2.529297 9.150391 51.063168 8.107644 2.471410 -90.498047 -8.408203 60.506386 2.000000 -2.000000 0.000000 -86.005859 28.876953 -22.221846 -111.179085 0.696602 -3.039232 62.731647 7.372978 12.248466 -2.000000 2.000000 0.000000 57.734375 -13.798828 12.177735 133.275269 -1.997471 -2.703995 -62.829395 -31.606295 33.424824 -8.399735 16.043459 60.140903 21.042366 -4.842481 -1.994033 -9.688318 -4.562657 41.988194 5.429049 -8.319939 -21.081816 10.181465 4.643012 0.989406 -13.129381 1.608430 23.927549 
3.093833 50.531349 53.062473 4.589844 -5.439453 75.830078 50.213673 -12.630543 5.516286 -19.570314 5.126954 6.962891 51.063168 8.107644 2.471410 -91.455078 -8.603515 55.703125 2.000000 -2.000000 0.000000 -84.013672 33.496090 -27.289534 -119.782089 1.194644 -2.716310 66.092949 7.551798 10.537122 -2.000000 2.000000 0.000000 55.136719 -11.181641 11.443421 136.953522 -2.315101 -2.624625 -68.112015 -29.632816 34.371189 -16.651314 16.107594 50.858822 30.037376 -4.824808 -2.800193 -10.166610 0.939265 37.949982 17.028177 5.739373 -25.630363 -14.244921 5.277616 -1.066140 -0.987954 0.387022 26.873360 
1.955104 50.694405 58.015877 4.228516 -6.845703 80.322266 49.378422 -15.403955 8.110929 -19.990236 7.919922 4.755859 51.063168 8.107644 2.471410 -91.552734 -8.994140 52.177734 2.000000 -2.000000 0.000000 -63.603516 36.484375 -9.164116 -129.266190 1.891801 -2.502945 75.102905 8.747848 13.663828 -2.000000 2.000000 0.000000 56.455074 -18.378906 3.144531 135.549332 -2.242897 -2.688888 -68.590508 -30.990211 36.659374 -20.692848 9.745149 35.692062 28.442072 -4.703699 -2.627490 -9.569451 3.729232 27.674723 15.848458 13.776343 -28.824730 -14.269790 5.265319 -1.076698 15.808399 2.528999 29.362894 
4.235433 51.328876 53.349567 3.886719 -7.373046 80.156250 48.923256 -16.660072 9.178518 -20.449219 9.677735 3.554688 51.063168 8.107644 2.471410 -90.996094 -8.984374 51.796879 2.000000 -2.000000 0.000000 -37.382813 28.818357 16.298828 -139.111145 2.278711 -2.242321 86.303482 9.743488 19.996140 -2.000000 2.000000 0.000000 62.705078 -28.730471 -11.005858 130.984879 -2.056969 -2.522006 -66.203835 -34.636189 39.188679 -18.751392 0.904831 17.642687 20.513916 -4.963399 -1.950728 -11.269444 4.037609 15.692032 9.255921 9.904365 -31.713644 -3.443046 5.411929 -0.127382 15.877518 1.290888 33.694950 
